<svg id="Layer_1" data-name="Layer 1" xmlns="http://www.w3.org/2000/svg" viewBox="0 0 2023.54 2062.9"><defs><style>.cls-1{fill:#fff;}</style></defs><path class="cls-1" d="M1138,255.56A12.47,12.47,0,0,0,1125.41,268V1795.68a12.46,12.46,0,0,0,12.57,12.48,12.09,12.09,0,0,0,8.54-3.51l230.12-221.28h-98.88a40.71,40.71,0,0,1-40.69-40.71V507.49L1538,808.37A227.12,227.12,0,0,1,1604.46,969v301.5l95.24-95.24a56,56,0,0,0,16.42-39.61V922.73a227.22,227.22,0,0,0-66.5-160.59L1146.71,259.23a12.25,12.25,0,0,0-8.73-3.67"/><path class="cls-1" d="M885.56,254.74a12.17,12.17,0,0,0-8.54,3.51L646.89,479.58h98.86a40.69,40.69,0,0,1,40.71,40.69V1555.44L485.58,1254.56A227.17,227.17,0,0,1,419.05,1094V792.47l-95.24,95.24a56,56,0,0,0-16.39,39.61v212.87a227.1,227.1,0,0,0,66.5,160.6L875.14,1802a13.18,13.18,0,0,0,9.4,4,13.43,13.43,0,0,0,13.55-13.47V267.22a12.46,12.46,0,0,0-12.53-12.48"/></svg>